<svg xmlns="http://www.w3.org/2000/svg" viewBox="0 0 64 64">
  <defs>
    <linearGradient id="bg" x1="0%" y1="0%" x2="100%" y2="100%">
      <stop offset="0%" stop-color="#0aabbd"/>
      <stop offset="100%" stop-color="#007acc"/>
    </linearGradient>
    <linearGradient id="tooth" x1="20%" y1="0%" x2="80%" y2="100%">
      <stop offset="0%" stop-color="#ffffff"/>
      <stop offset="100%" stop-color="#d0f0f7"/>
    </linearGradient>
  </defs>
  <!-- Background rounded square -->
  <rect width="64" height="64" rx="14" fill="url(#bg)"/>
  <!-- Tooth shape -->
  <path d="M32 8 C23 8 16 14 16 22 C16 28 18.5 32.5 21 37 C22.5 40 23.5 44.5 25.5 48 C26.5 50.5 28 52 30 52 C32 52 32 48 32 46 C32 48 32 52 34 52 C36 52 37.5 50.5 38.5 48 C40.5 44.5 41.5 40 43 37 C45.5 32.5 48 28 48 22 C48 14 41 8 32 8Z" fill="url(#tooth)" stroke="rgba(255,255,255,0.4)" stroke-width="1"/>
  <!-- Shine highlight -->
  <ellipse cx="26" cy="18" rx="4" ry="6" fill="white" opacity="0.35" transform="rotate(-15 26 18)"/>
</svg>
