<svg xmlns="http://www.w3.org/2000/svg" viewBox="0 0 64 64">
  <defs>
    <linearGradient id="bg" x1="0%" y1="0%" x2="100%" y2="100%">
      <stop offset="0%" stop-color="#0aabbd"/>
      <stop offset="100%" stop-color="#007acc"/>
    </linearGradient>
    <linearGradient id="tooth" x1="20%" y1="0%" x2="80%" y2="100%">
      <stop offset="0%" stop-color="#ffffff"/>
      <stop offset="100%" stop-color="#d0f0f7"/>
    </linearGradient>
  </defs>
  <rect width="64" height="64" rx="14" fill="url(#bg)"/>
  <!-- Tooth outline -->
  <path d="M32 10
    C26 8, 20 12, 16 20
    C12 30, 14 40, 18 48
    C22 54, 26 54, 30 46
    C31 42, 32 42, 33 46
    C35 54, 39 54, 43 48
    C47 40, 49 30, 45 20
    C41 12, 35 8, 32 10Z"
    fill="url(#tooth)" stroke="#7dd3e8" stroke-width="2.5" stroke-linejoin="round"/>
  <!-- Crown groove -->
  <path d="M32 10 Q31 18 32 26" fill="none" stroke="#7dd3e8" stroke-width="1.5" stroke-linecap="round" opacity="0.5"/>
  <!-- Shine -->
  <ellipse cx="22" cy="16" rx="3" ry="5" fill="white" opacity="0.35" transform="rotate(-10 22 16)"/>
</svg>
